<svg xmlns="http://www.w3.org/2000/svg" viewBox="0 0 256 160" fill="none">
  <rect width="256" height="160" rx="20" fill="#FFC629"/>
  <path d="M18 12h66c42 0 70 31 78 78 8 47-19 58-51 58H18V12Z" fill="#fff"/>
  <path d="M48 112c-16-21-14-52 4-72 17-18 43-28 69-20 24 7 40 28 45 57" stroke="#FF3131" stroke-width="10" stroke-linecap="round"/>
  <path d="M88 102V59c0-10 8-18 18-18h106c11 0 20 9 20 20v41H88Z" fill="#FFC629" stroke="#242424" stroke-width="5"/>
  <path d="M88 102h-9c-8 0-14-5-14-13V69c0-16 8-26 23-29v62ZM212 102h20v13h-20z" fill="#242424"/>
  <path d="M98 52h29v28H98zM134 52h29v28h-29zM170 52h48v28h-48z" fill="#fff"/>
  <path d="M113 102h89" stroke="#242424" stroke-width="5"/>
  <circle cx="110" cy="116" r="16" fill="#242424" stroke="#FFC629" stroke-width="5"/>
  <circle cx="205" cy="116" r="16" fill="#242424" stroke="#FFC629" stroke-width="5"/>
  <path d="M58 131h166" stroke="#242424" stroke-width="7" stroke-linecap="round"/>
</svg>
